<?xml version="1.0" encoding="UTF-8"?>
<svg width="352px" height="408px" viewBox="0 0 352 408" version="1.1" xmlns="http://www.w3.org/2000/svg" xmlns:xlink="http://www.w3.org/1999/xlink">
    <g id="Page-1" stroke="none" stroke-width="1" fill="none" fill-rule="evenodd">
        <g id="Artboard" transform="translate(-415.000000, -313.000000)" fill="#000000" fill-rule="nonzero">
            <path d="M590.8,721 C531.199702,721 487.000144,704.100169 458.2,670.3 C429.399856,636.499831 415,585.400342 415,517 C415,448.599658 429.399856,397.500169 458.2,363.7 C487.000144,329.899831 531.199702,313 590.8,313 C650.400298,313 694.599856,329.899831 723.4,363.7 C752.200144,397.500169 766.6,448.599658 766.6,517 C766.6,585.400342 752.200144,636.499831 723.4,670.3 C694.599856,704.100169 650.400298,721 590.8,721 Z M590.8,616 C601.200052,616 609.199972,613.100029 614.8,607.3 C620.400028,601.499971 624.299989,591.700069 626.5,577.9 C628.700011,564.099931 629.8,543.800134 629.8,517 C629.8,490.199866 628.700011,469.900069 626.5,456.1 C624.299989,442.299931 620.400028,432.500029 614.8,426.7 C609.199972,420.899971 601.200052,418 590.8,418 C580.399948,418 572.400028,420.899971 566.8,426.7 C561.199972,432.500029 557.300011,442.299931 555.1,456.1 C552.899989,469.900069 551.8,490.199866 551.8,517 C551.8,543.800134 552.899989,564.099931 555.1,577.9 C557.300011,591.700069 561.199972,601.499971 566.8,607.3 C572.400028,613.100029 580.399948,616 590.8,616 Z" id="Combined-Shape"></path>
        </g>
    </g>
</svg>