<?xml version="1.0" encoding="UTF-8"?>
<svg width="1191px" height="646px" viewBox="0 0 1191 646" version="1.1" xmlns="http://www.w3.org/2000/svg" xmlns:xlink="http://www.w3.org/1999/xlink">
    <g id="future-health-splash" stroke="none" stroke-width="1" fill="none" fill-rule="evenodd">
        <g id="future-health-splash-artboard" transform="translate(-193.000000, -228.000000)" fill="#FFFFFF" fill-rule="nonzero">
            <path d="M193.2,529 L193.2,228.2 L400.4,228.2 L400.4,287.8 L253.2,287.8 L253.2,344.6 L381.2,344.6 L381.2,404.2 L253.2,404.2 L253.2,529 L193.2,529 Z M499.066666,533.8 C449.466666,533.8 416.666666,498.2 416.666666,440.6 L416.666666,313.4 L476.666666,313.4 L476.666666,429.8 C476.666666,457 491.866666,472.6 513.066666,472.6 C531.066666,472.6 553.066666,461.4 563.066666,429.4 L563.066666,313.4 L623.466666,313.4 L623.466666,529 L563.066666,529 L563.066666,505.8 C544.666666,523.8 525.066666,533.8 499.066666,533.8 Z M759.333332,533.8 C704.133332,533.8 681.333332,511.8 681.333332,457.4 L681.333332,371.8 L646.133332,371.8 L646.133332,313 L681.333332,313 L681.333332,252.6 L741.333332,252.6 L741.333332,313 L784.133332,313 L784.133332,371.8 L741.333332,371.8 L741.333332,440.2 C741.333332,468.2 749.333332,473.8 760.933332,473.8 L786.133332,473.8 L786.133332,532.2 C778.133332,533 769.733332,533.8 759.333332,533.8 Z M891.599998,533.8 C841.999998,533.8 809.199998,498.2 809.199998,440.6 L809.199998,313.4 L869.199998,313.4 L869.199998,429.8 C869.199998,457 884.399998,472.6 905.599998,472.6 C923.599998,472.6 945.599998,461.4 955.599998,429.4 L955.599998,313.4 L1016,313.4 L1016,529 L955.599998,529 L955.599998,505.8 C937.199998,523.8 917.599998,533.8 891.599998,533.8 Z M1047.06666,529 L1047.06666,313 L1107.06666,313 L1107.06666,343 C1124.26666,319.8 1147.06666,309.8 1179.06666,311.4 L1179.06666,380.6 C1129.86666,380.6 1107.06666,401 1107.06666,444.6 L1107.06666,529 L1047.06666,529 Z M1288.53333,533.8 C1224.13333,533.8 1181.73333,489 1181.73333,421 C1181.73333,354.2 1223.33333,309.4 1284.53333,309.4 C1345.73333,309.4 1383.73333,354.6 1383.73333,427 L1383.73333,444.2 L1242.93333,444.2 C1249.73333,463.8 1266.13333,474.6 1288.93333,474.6 C1308.53333,474.6 1325.33333,466.6 1334.93333,452.6 L1380.93333,483.4 C1356.93333,517.8 1327.33333,533.8 1288.53333,533.8 Z M1245.33333,396.6 L1321.33333,396.6 C1319.33333,379.8 1304.53333,368.2 1285.33333,368.2 C1266.53333,368.2 1250.53333,379.4 1245.33333,396.6 Z M193.2,869 L193.2,568.2 L253.2,568.2 L253.2,685.8 L369.2,685.8 L369.2,568.2 L429.2,568.2 L429.2,869 L369.2,869 L369.2,745 L253.2,745 L253.2,869 L193.2,869 Z M557.866666,873.8 C493.466666,873.8 451.066666,829 451.066666,761 C451.066666,694.2 492.666666,649.4 553.866666,649.4 C615.066666,649.4 653.066666,694.6 653.066666,767 L653.066666,784.2 L512.266666,784.2 C519.066666,803.8 535.466666,814.6 558.266666,814.6 C577.866666,814.6 594.666666,806.6 604.266666,792.6 L650.266666,823.4 C626.266666,857.8 596.666666,873.8 557.866666,873.8 Z M514.666666,736.6 L590.666666,736.6 C588.666666,719.8 573.866666,708.2 554.666666,708.2 C535.866666,708.2 519.866666,719.4 514.666666,736.6 Z M747.333332,873.8 C700.933332,873.8 668.933332,848.6 668.933332,811.8 C668.933332,781.4 689.733332,757.8 724.133332,749.4 C778.533332,735.8 793.333332,729.4 793.333332,719 C793.333332,711 784.533332,706.6 771.333332,706.6 C751.333332,706.6 737.733332,716.6 731.333332,735.4 L676.533332,714.6 C690.533332,673.4 724.933332,649.4 771.733332,649.4 C824.533332,649.4 856.533332,680.6 856.533332,731.4 L856.533332,805 C856.533332,817 865.733332,823.4 877.733332,819.4 L877.733332,870.2 C869.733332,872.6 861.733332,873.8 853.733332,873.8 C835.333332,873.8 819.333332,867.4 809.733332,855.8 C794.933332,867 771.333332,873.8 747.333332,873.8 Z M753.733332,822.6 C770.933332,822.6 786.533332,817 796.933332,807.4 L796.933332,777 C758.133332,793.8 728.533332,790.2 728.533332,807.8 C728.533332,817.8 738.133332,822.6 753.733332,822.6 Z M893.999998,869 L893.999998,566.6 L953.999998,566.6 L953.999998,869 L893.999998,869 Z M1092.26666,873.8 C1037.06666,873.8 1014.26666,851.8 1014.26666,797.4 L1014.26666,711.8 L979.066664,711.8 L979.066664,653 L1014.26666,653 L1014.26666,592.6 L1074.26666,592.6 L1074.26666,653 L1117.06666,653 L1117.06666,711.8 L1074.26666,711.8 L1074.26666,780.2 C1074.26666,808.2 1082.26666,813.8 1093.86666,813.8 L1119.06666,813.8 L1119.06666,872.2 C1111.06666,873 1102.66666,873.8 1092.26666,873.8 Z M1141.33333,868.6 L1141.33333,566.6 L1201.73333,566.6 L1201.73333,676.2 C1219.73333,658.6 1239.73333,649.4 1264.53333,649.4 C1310.93333,649.4 1348.13333,682.2 1348.13333,735.4 L1348.13333,868.6 L1288.13333,868.6 L1288.13333,752.2 C1288.13333,725.4 1272.93333,709.8 1251.73333,709.8 C1233.73333,709.8 1211.73333,721 1201.73333,752.6 L1201.73333,868.6 L1141.33333,868.6 Z" id="FutureHealth"></path>
        </g>
    </g>
</svg>