<?xml version="1.0" encoding="UTF-8"?>
<svg width="60px" height="80px" viewBox="0 0 60 80" version="1.1" xmlns="http://www.w3.org/2000/svg" xmlns:xlink="http://www.w3.org/1999/xlink">
    <!-- Generator: Sketch 53 (72520) - https://sketchapp.com -->
    <title>Artboard</title>
    <desc>Created with Sketch.</desc>
    <g id="Artboard" stroke="none" stroke-width="1" fill="none" fill-rule="evenodd">
        <g id="location,-pin,-position,-map,-navigation" fill="#3D3B4A">
            <path d="M30,0 C13.4389967,0.0181871078 0.0181871114,13.4389941 0,29.9999941 C0,57.0899888 25.7815,78.0274847 26.875,78.9064845 C28.7032343,80.3645052 31.2967657,80.3645052 33.125,78.9064845 C34.219,78.0274847 60,57.0899888 60,29.9999941 C59.9818129,13.4389941 46.5610033,0.0181871078 30,0 Z M30,68.2909866 C23.6815,62.2559878 10,47.1999907 10,29.9999941 C10,18.9543013 18.954305,9.99999803 30,9.99999803 C41.045695,9.99999803 50,18.9543013 50,29.9999941 C50,47.1999907 36.3185,62.2559878 30,68.2909866 Z" id="Shape" fill-rule="nonzero"></path>
            <path d="M29,19.7530864 C23.4771525,19.7530864 19,24.3960594 19,30.1234568 C19,35.8508542 23.4771525,40.4938272 29,40.4938272 C34.5228475,40.4938272 39,35.8508542 39,30.1234568 C38.9925634,24.3992569 34.5197642,19.7607985 29,19.7530864 Z" id="Path"></path>
        </g>
    </g>
</svg>