<?xml version="1.0" encoding="UTF-8"?>
<svg width="179px" height="36px" viewBox="0 0 179 36" version="1.1" xmlns="http://www.w3.org/2000/svg" xmlns:xlink="http://www.w3.org/1999/xlink">
    <!-- Generator: Sketch 53 (72520) - https://sketchapp.com -->
    <title>Artboard</title>
    <desc>Created with Sketch.</desc>
    <g id="Artboard" stroke="none" stroke-width="1" fill="none" fill-rule="evenodd">
        <path d="M2.96491573,21.1990933 C1.60876085,21.4559523 0.301084725,20.5651664 0.044139348,19.2094674 C-0.212806029,17.8537683 0.678279333,16.5465317 2.03443421,16.2896727 C5.47010504,15.6389484 8.78801194,15.0951733 12.0235046,14.6511 C13.3909577,14.4634163 14.6516964,15.4194358 14.8394433,16.7864293 C15.0271901,18.1534228 14.0708492,19.4137377 12.7033961,19.6014215 C9.55287572,20.0338322 6.31846122,20.5639236 2.96491573,21.1990933 Z M22.4975965,18.5452343 C21.1214536,18.6520058 19.919285,17.623352 19.8124776,16.2476716 C19.7056702,14.8719913 20.7346699,13.6702267 22.1108128,13.5634553 C25.4961101,13.3007985 28.853119,13.14516 32.2489132,13.0893101 C33.6290079,13.0666119 34.7662024,14.1666232 34.7889082,15.546254 C34.811614,16.9258849 33.7112328,18.0626971 32.3311381,18.0853953 C29.0359896,18.13959 25.7805098,18.2905213 22.4975965,18.5452343 Z M42.1992674,18.1972324 C40.8199323,18.1461455 39.7431883,16.9869352 39.7942923,15.6080637 C39.8453964,14.2291922 41.0049965,13.1528101 42.3843316,13.203897 C45.5639072,13.32166 48.8713038,13.5138781 52.4592429,13.783667 C53.8356362,13.8871626 54.8674955,15.0864744 54.7639652,16.4624051 C54.6604349,17.8383357 53.4607197,18.8698482 52.0843265,18.7663527 C48.5566442,18.5010946 45.3118165,18.3125129 42.1992674,18.1972324 Z M61.9960781,19.6289851 C60.622136,19.4968933 59.6154534,18.2763859 59.7475897,16.9029056 C59.879726,15.5294252 61.1006437,14.5230811 62.4745859,14.6551729 C64.6150362,14.8609575 66.880646,15.0874485 69.7669946,15.3824575 C70.7026492,15.4780896 71.6268496,15.5940531 72.5426213,15.7302212 C73.9078827,15.9332249 74.8500234,17.204183 74.6469514,18.5689855 C74.4438794,19.933788 73.172494,20.8756121 71.8072326,20.6726083 C70.9667481,20.5476349 70.1182265,20.4411671 69.2585897,20.3533047 C66.3813626,20.0592281 64.1249819,19.8336596 61.9960781,19.6289851 Z M81.1473909,22.8844489 C79.8341121,22.4597674 79.1138774,21.05123 79.5387016,19.7383926 C79.9635259,18.4255552 81.3725369,17.7055625 82.6858157,18.130244 C85.6874552,19.100899 88.5753625,20.2413328 92.2362703,21.8458564 C93.5003918,22.3999028 94.0758704,23.8734746 93.5216377,25.1371712 C92.967405,26.4008678 91.4933377,26.9761529 90.2292163,26.4221066 C86.7084697,24.8790137 83.9646482,23.7954793 81.1473909,22.8844489 Z M99.4023809,30.4625363 C98.12882,29.9305313 97.5278152,28.467178 98.059999,27.1940452 C98.5921828,25.9209124 100.056028,25.3201095 101.329589,25.8521144 C104.647374,27.2380537 107.525899,28.2667774 110.455004,29.0676809 C111.786381,29.4317185 112.570466,30.8057607 112.206306,32.1366901 C111.842146,33.4676195 110.467641,34.2514402 109.136265,33.8874026 C105.977825,33.0237926 102.904068,31.9252971 99.4023809,30.4625363 Z M119.399142,35.7485435 C118.024522,35.6236932 117.011418,34.4085073 117.13631,33.0343498 C117.261202,31.6601923 118.476797,30.6474287 119.851417,30.772279 C122.896187,31.0488213 126.0748,31.0802468 129.451501,30.8491913 C130.828561,30.7549641 132.0213,31.7945298 132.115559,33.1711262 C132.209817,34.5477226 131.169902,35.7400607 129.792843,35.8342879 C126.153826,36.0832927 122.709898,36.0492442 119.399142,35.7485435 Z M140.322021,33.4727921 C139.041764,33.9884858 137.585718,33.3690335 137.069851,32.0892068 C136.553984,30.80938 137.173644,29.3538231 138.453901,28.8381295 C141.222084,27.7230925 143.852811,26.1674395 146.499567,24.1372283 C147.594625,23.2972574 149.163504,23.5037478 150.003758,24.5984374 C150.844011,25.6931271 150.637451,27.2614793 149.542394,28.1014501 C146.55421,30.3935547 143.536826,32.1778533 140.322021,33.4727921 Z M157.192486,21.1980105 C156.222288,22.1794612 154.639897,22.188848 153.658116,21.2189764 C152.676335,20.2491048 152.666946,18.6672455 153.637143,17.6857948 C154.226177,17.0899287 154.836885,16.4622547 155.561726,15.7095612 C155.613599,15.6556958 158.167215,12.9919233 158.905336,12.2318205 C159.518947,11.5999364 160.074427,11.0354604 160.609323,10.5015782 C161.586091,9.52666174 163.16851,9.52789649 164.143754,10.5043361 C165.118998,11.4807757 165.117763,13.0626624 164.140995,14.0375789 C163.626076,14.5515225 163.088426,15.0978786 162.491823,15.7122486 C161.76701,16.4586465 159.224468,19.110867 159.162726,19.1749816 C158.423942,19.9421538 157.798758,20.5847063 157.192486,21.1980105 Z M171.383645,7.81908073 C170.241422,8.59374187 168.687269,8.29608531 167.912348,7.15424619 C167.137426,6.01240707 167.435183,4.45877664 168.577406,3.6841155 C170.91379,2.0995685 173.269346,0.910656048 175.737278,0.119895644 C177.051692,-0.301261222 178.458766,0.422508736 178.880064,1.73648109 C179.301363,3.05045345 178.577349,4.4570536 177.262935,4.87821046 C175.274656,5.51528318 173.342971,6.49025658 171.383645,7.81908073 Z" id="Path" fill="#93919B" fill-rule="nonzero"></path>
    </g>
</svg>